FFmpeg version SVN-r25716, Copyright (c) 2000-2010 the FFmpeg developers  built on Nov 10 2010 12:23:18 with gcc 4.1.2 20080704 (Red Hat 4.1.2-48)  configuration: --enable-libmp3lame --enable-shared --disable-mmx --arch=x86_64  libavutil     50.33. 0 / 50.33. 0  libavcore      0.12. 1 /  0.12. 1  libavcodec    52.94. 4 / 52.94. 4  libavformat   52.84. 0 / 52.84. 0  libavdevice   52. 2. 2 / 52. 2. 2  libavfilter    1.59. 0 /  1.59. 0  libswscale     0.12. 0 /  0.12. 0Input #0, avi, from '/RAID10/data/converted_video_files/47516.avi':  Duration: 00:00:07.25, start: 0.000000, bitrate: 188741 kb/s    Stream #0.0: Video: msvideo1, rgb555le, 1024x1024, 20 tbr, 20 tbn, 20 tbc[buffer @ 0xe01a380] w:1024 h:1024 pixfmt:rgb555le[ffsink @ 0xe019700] auto-inserting filter 'auto-inserted scaler 0' between the filter 'src' and the filter 'out'[scale @ 0xe0199f0] w:1024 h:1024 fmt:rgb555le -> w:1024 h:1024 fmt:yuv420p flags:0x4Output #0, flv, to '/RAID10/data/converted_video_files/47516.flv':  Metadata:    encoder         : Lavf52.84.0    Stream #0.0: Video: flv, yuv420p, 1024x1024, q=2-31, 600 kb/s, 1k tbn, 24 tbcStream mapping:  Stream #0.0 -> #0.0Press [q] to stop encodingframe=    6 fps=  0 q=9.4 size=     963kB time=0.29 bitrate=27013.4kbits/s    frame=   12 fps= 10 q=20.3 size=    1027kB time=0.58 bitrate=14407.7kbits/s    frame=   22 fps= 13 q=31.0 size=    1060kB time=1.08 bitrate=8007.4kbits/s    frame=   33 fps= 15 q=31.0 size=    1092kB time=1.62 bitrate=5503.6kbits/s    frame=   43 fps= 15 q=31.0 size=    1123kB time=2.12 bitrate=4330.9kbits/s    frame=   53 fps= 16 q=31.0 size=    1129kB time=2.62 bitrate=3524.5kbits/s    frame=   63 fps= 16 q=31.0 size=    1161kB time=3.12 bitrate=3042.5kbits/s    frame=   73 fps= 17 q=31.0 size=    1192kB time=3.62 bitrate=2694.1kbits/s    frame=   84 fps= 17 q=31.0 size=    1224kB time=4.21 bitrate=2382.7kbits/s    frame=   94 fps= 17 q=31.0 size=    1256kB time=4.71 bitrate=2184.5kbits/s    frame=  104 fps= 17 q=31.0 size=    1287kB time=5.21 bitrate=2024.8kbits/s    frame=  114 fps= 17 q=24.8 size=    1319kB time=5.71 bitrate=1892.3kbits/s    frame=  124 fps= 18 q=31.0 size=    1324kB time=6.21 bitrate=1747.1kbits/s    frame=  134 fps= 18 q=31.0 size=    1356kB time=6.71 bitrate=1655.6kbits/s    frame=  145 fps= 18 q=31.0 size=    1388kB time=7.25 bitrate=1568.2kbits/s    frame=  145 fps= 18 q=31.0 Lsize=    1388kB time=7.25 bitrate=1568.2kbits/s    video:1385kB audio:0kB global headers:0kB muxing overhead 0.178340%